<?xml version="1.0" encoding="utf-8"?>
<!-- Generator: Adobe Illustrator 24.0.0, SVG Export Plug-In . SVG Version: 6.00 Build 0)  -->
<svg version="1.1" id="_x32_" xmlns="http://www.w3.org/2000/svg" xmlns:xlink="http://www.w3.org/1999/xlink" x="0px" y="0px"
	 width="512px" height="512px" viewBox="0 0 512 512" style="enable-background:new 0 0 512 512;" xml:space="preserve">
<style type="text/css">
	.st0{fill:#FFFFFF;}
</style>
<g>
	<path class="st0" d="M0,204.9v102.2c0,21.2,17.2,38.4,38.4,38.4H110V166.4H38.4C17.2,166.4,0,183.7,0,204.9z"/>
	<path class="st0" d="M288,94.7c-3.9-2.4-8.7-2.6-12.7-0.5l-142.2,72.2v179.1l142.2,72.2c4,2.1,8.9,1.9,12.7-0.5
		c3.9-2.4,6.2-6.6,6.2-11.1V105.8C294.3,101.3,291.9,97.1,288,94.7z"/>
	<path class="st0" d="M453.1,253.5l54.4-54.4c6-6,6-15.7,0-21.7c-6-6-15.7-6-21.7,0l-54.4,54.4L377,177.4c-6-6-15.7-6-21.7,0
		c-6,6-6,15.7,0,21.7l54.4,54.4l-54.4,54.4c-6,6-6,15.7,0,21.7c6,6,15.7,6,21.7,0l54.4-54.4l54.4,54.4c6,6,15.7,6,21.7,0
		s6-15.7,0-21.7L453.1,253.5z"/>
</g>
</svg>
