<?xml version="1.0" encoding="utf-8"?>
<!-- Generator: Adobe Illustrator 24.0.0, SVG Export Plug-In . SVG Version: 6.00 Build 0)  -->
<svg version="1.1" id="_x32_" xmlns="http://www.w3.org/2000/svg" xmlns:xlink="http://www.w3.org/1999/xlink" x="0px" y="0px"
	 width="512px" height="512px" viewBox="0 0 512 512" style="enable-background:new 0 0 512 512;" xml:space="preserve">
<style type="text/css">
	.st0{fill:#FFFFFF;}
</style>
<g>
	<path class="st0" d="M0,206.3v99.5c0,20.7,16.8,37.4,37.4,37.4h69.7V168.8H37.4C16.8,168.8,0,185.6,0,206.3z"/>
	<path class="st0" d="M280.3,99c-3.8-2.3-8.5-2.5-12.4-0.5l-138.4,70.3v174.3l138.4,70.3c3.9,2,8.6,1.8,12.4-0.5
		c3.8-2.3,6.1-6.4,6.1-10.8V109.9C286.4,105.4,284.1,101.3,280.3,99z"/>
	<path class="st0" d="M408.5,162.7c-5.1-5.6-13.7-6.1-19.3-1c-5.6,5.1-6.1,13.7-1,19.3c19.1,21.3,28.7,48.1,28.7,75
		c0,26.9-9.6,53.8-28.7,75c-5.1,5.6-4.6,14.3,1,19.4c5.6,5.1,14.3,4.6,19.3-1c23.8-26.5,35.8-59.9,35.8-93.3
		C444.3,222.6,432.4,189.1,408.5,162.7z"/>
	<path class="st0" d="M458.9,117.3c-5.1-5.6-13.7-6.1-19.3-1c-5.6,5.1-6.1,13.7-1,19.3c30.7,34.1,46.1,77.2,46.1,120.3
		c0,43.2-15.4,86.2-46.1,120.3c-5.1,5.6-4.6,14.3,1,19.3c5.6,5.1,14.3,4.6,19.3-1c35.4-39.3,53.1-89,53.1-138.7
		C512,206.4,494.3,156.6,458.9,117.3z"/>
	<path class="st0" d="M338.8,207c-5.6,5.1-6.1,13.7-1,19.3c7.6,8.4,11.4,19,11.4,29.6c0,10.6-3.8,21.2-11.4,29.6
		c-5.1,5.6-4.6,14.3,1,19.3c5.6,5.1,14.3,4.6,19.3-1c12.3-13.6,18.4-30.8,18.4-48c0-17.1-6.2-34.4-18.4-48
		C353,202.4,344.4,202,338.8,207z"/>
</g>
</svg>
